<mxfile host="app.diagrams.net" agent="Mozilla/5.0 (Windows NT 10.0; Win64; x64) AppleWebKit/537.36 (KHTML, like Gecko) Chrome/140.0.0.0 Safari/537.36" version="28.2.1">
  <diagram id="3SGjl5Qv86l34FT9YZxy" name="ページ1">
    <mxGraphModel dx="786" dy="498" grid="1" gridSize="10" guides="1" tooltips="1" connect="1" arrows="1" fold="1" page="1" pageScale="1" pageWidth="827" pageHeight="1169" math="0" shadow="0">
      <root>
        <mxCell id="0" />
        <mxCell id="1" parent="0" />
        <mxCell id="S9akIxUvSgGWWp-rXEKx-4" value="" style="shape=umlLifeline;perimeter=lifelinePerimeter;whiteSpace=wrap;html=1;container=1;dropTarget=0;collapsible=0;recursiveResize=0;outlineConnect=0;portConstraint=eastwest;newEdgeStyle={&quot;curved&quot;:0,&quot;rounded&quot;:0};participant=umlActor;" vertex="1" parent="1">
          <mxGeometry x="60" y="70" width="30" height="310" as="geometry" />
        </mxCell>
        <mxCell id="S9akIxUvSgGWWp-rXEKx-5" value="" style="html=1;points=[[0,0,0,0,5],[0,1,0,0,-5],[1,0,0,0,5],[1,1,0,0,-5]];perimeter=orthogonalPerimeter;outlineConnect=0;targetShapes=umlLifeline;portConstraint=eastwest;newEdgeStyle={&quot;curved&quot;:0,&quot;rounded&quot;:0};" vertex="1" parent="S9akIxUvSgGWWp-rXEKx-4">
          <mxGeometry x="10" y="70" width="10" height="80" as="geometry" />
        </mxCell>
        <mxCell id="S9akIxUvSgGWWp-rXEKx-6" value="" style="html=1;points=[[0,0,0,0,5],[0,1,0,0,-5],[1,0,0,0,5],[1,1,0,0,-5]];perimeter=orthogonalPerimeter;outlineConnect=0;targetShapes=umlLifeline;portConstraint=eastwest;newEdgeStyle={&quot;curved&quot;:0,&quot;rounded&quot;:0};" vertex="1" parent="S9akIxUvSgGWWp-rXEKx-4">
          <mxGeometry x="10" y="190" width="10" height="80" as="geometry" />
        </mxCell>
        <mxCell id="S9akIxUvSgGWWp-rXEKx-7" value="" style="shape=umlLifeline;perimeter=lifelinePerimeter;whiteSpace=wrap;html=1;container=1;dropTarget=0;collapsible=0;recursiveResize=0;outlineConnect=0;portConstraint=eastwest;newEdgeStyle={&quot;curved&quot;:0,&quot;rounded&quot;:0};participant=umlBoundary;fillColor=#d5e8d4;strokeColor=#82b366;" vertex="1" parent="1">
          <mxGeometry x="190" y="70" width="50" height="310" as="geometry" />
        </mxCell>
        <mxCell id="S9akIxUvSgGWWp-rXEKx-10" value="" style="html=1;points=[[0,0,0,0,5],[0,1,0,0,-5],[1,0,0,0,5],[1,1,0,0,-5]];perimeter=orthogonalPerimeter;outlineConnect=0;targetShapes=umlLifeline;portConstraint=eastwest;newEdgeStyle={&quot;curved&quot;:0,&quot;rounded&quot;:0};" vertex="1" parent="S9akIxUvSgGWWp-rXEKx-7">
          <mxGeometry x="20" y="85" width="10" height="50" as="geometry" />
        </mxCell>
        <mxCell id="S9akIxUvSgGWWp-rXEKx-8" value="メニュー画面" style="rounded=0;whiteSpace=wrap;html=1;fillColor=default;strokeColor=none;" vertex="1" parent="1">
          <mxGeometry x="191" y="111" width="55" height="40" as="geometry" />
        </mxCell>
        <mxCell id="S9akIxUvSgGWWp-rXEKx-9" value="" style="shape=umlLifeline;perimeter=lifelinePerimeter;whiteSpace=wrap;html=1;container=1;dropTarget=0;collapsible=0;recursiveResize=0;outlineConnect=0;portConstraint=eastwest;newEdgeStyle={&quot;curved&quot;:0,&quot;rounded&quot;:0};participant=umlBoundary;fillColor=#d5e8d4;strokeColor=#82b366;" vertex="1" parent="1">
          <mxGeometry x="290" y="70" width="50" height="310" as="geometry" />
        </mxCell>
        <mxCell id="S9akIxUvSgGWWp-rXEKx-13" value="" style="html=1;points=[[0,0,0,0,5],[0,1,0,0,-5],[1,0,0,0,5],[1,1,0,0,-5]];perimeter=orthogonalPerimeter;outlineConnect=0;targetShapes=umlLifeline;portConstraint=eastwest;newEdgeStyle={&quot;curved&quot;:0,&quot;rounded&quot;:0};" vertex="1" parent="S9akIxUvSgGWWp-rXEKx-9">
          <mxGeometry x="20" y="100" width="10" height="37" as="geometry" />
        </mxCell>
        <mxCell id="S9akIxUvSgGWWp-rXEKx-16" value="" style="html=1;points=[[0,0,0,0,5],[0,1,0,0,-5],[1,0,0,0,5],[1,1,0,0,-5]];perimeter=orthogonalPerimeter;outlineConnect=0;targetShapes=umlLifeline;portConstraint=eastwest;newEdgeStyle={&quot;curved&quot;:0,&quot;rounded&quot;:0};" vertex="1" parent="S9akIxUvSgGWWp-rXEKx-9">
          <mxGeometry x="20" y="200" width="10" height="50" as="geometry" />
        </mxCell>
        <mxCell id="S9akIxUvSgGWWp-rXEKx-11" value="" style="shape=umlLifeline;perimeter=lifelinePerimeter;whiteSpace=wrap;html=1;container=1;dropTarget=0;collapsible=0;recursiveResize=0;outlineConnect=0;portConstraint=eastwest;newEdgeStyle={&quot;curved&quot;:0,&quot;rounded&quot;:0};participant=umlControl;fillColor=#f8cecc;strokeColor=#b85450;" vertex="1" parent="1">
          <mxGeometry x="394" y="70" width="39" height="310" as="geometry" />
        </mxCell>
        <mxCell id="S9akIxUvSgGWWp-rXEKx-17" value="" style="html=1;points=[[0,0,0,0,5],[0,1,0,0,-5],[1,0,0,0,5],[1,1,0,0,-5]];perimeter=orthogonalPerimeter;outlineConnect=0;targetShapes=umlLifeline;portConstraint=eastwest;newEdgeStyle={&quot;curved&quot;:0,&quot;rounded&quot;:0};" vertex="1" parent="S9akIxUvSgGWWp-rXEKx-11">
          <mxGeometry x="15" y="210" width="10" height="30" as="geometry" />
        </mxCell>
        <mxCell id="S9akIxUvSgGWWp-rXEKx-12" value="" style="shape=umlLifeline;perimeter=lifelinePerimeter;whiteSpace=wrap;html=1;container=1;dropTarget=0;collapsible=0;recursiveResize=0;outlineConnect=0;portConstraint=eastwest;newEdgeStyle={&quot;curved&quot;:0,&quot;rounded&quot;:0};participant=umlEntity;fillColor=#dae8fc;strokeColor=#6c8ebf;" vertex="1" parent="1">
          <mxGeometry x="520" y="70" width="40" height="310" as="geometry" />
        </mxCell>
        <mxCell id="S9akIxUvSgGWWp-rXEKx-18" value="" style="html=1;points=[[0,0,0,0,5],[0,1,0,0,-5],[1,0,0,0,5],[1,1,0,0,-5]];perimeter=orthogonalPerimeter;outlineConnect=0;targetShapes=umlLifeline;portConstraint=eastwest;newEdgeStyle={&quot;curved&quot;:0,&quot;rounded&quot;:0};" vertex="1" parent="S9akIxUvSgGWWp-rXEKx-12">
          <mxGeometry x="15" y="220" width="10" height="30" as="geometry" />
        </mxCell>
        <mxCell id="S9akIxUvSgGWWp-rXEKx-14" value="学生登録画面" style="rounded=0;whiteSpace=wrap;html=1;fillColor=default;strokeColor=none;" vertex="1" parent="1">
          <mxGeometry x="290" y="115" width="55" height="40" as="geometry" />
        </mxCell>
        <mxCell id="S9akIxUvSgGWWp-rXEKx-15" value="学生情報登録" style="rounded=0;whiteSpace=wrap;html=1;fillColor=default;strokeColor=none;" vertex="1" parent="1">
          <mxGeometry x="386" y="115" width="55" height="40" as="geometry" />
        </mxCell>
        <mxCell id="S9akIxUvSgGWWp-rXEKx-19" value="" style="endArrow=classic;html=1;rounded=0;" edge="1" parent="1" source="S9akIxUvSgGWWp-rXEKx-4">
          <mxGeometry width="50" height="50" relative="1" as="geometry">
            <mxPoint x="99.33000000000004" y="156.03999999999996" as="sourcePoint" />
            <mxPoint x="210" y="156.03999999999996" as="targetPoint" />
          </mxGeometry>
        </mxCell>
        <mxCell id="S9akIxUvSgGWWp-rXEKx-20" value="学生登録を選択()" style="rounded=0;whiteSpace=wrap;html=1;fillColor=none;strokeColor=none;" vertex="1" parent="1">
          <mxGeometry x="90" y="124" width="100" height="30" as="geometry" />
        </mxCell>
        <mxCell id="S9akIxUvSgGWWp-rXEKx-21" value="" style="endArrow=classic;html=1;rounded=0;entryX=0;entryY=0;entryDx=0;entryDy=5;entryPerimeter=0;exitX=1;exitY=0;exitDx=0;exitDy=5;exitPerimeter=0;" edge="1" parent="1">
          <mxGeometry width="50" height="50" relative="1" as="geometry">
            <mxPoint x="220" y="170" as="sourcePoint" />
            <mxPoint x="310" y="170" as="targetPoint" />
          </mxGeometry>
        </mxCell>
        <mxCell id="S9akIxUvSgGWWp-rXEKx-23" value="表示()" style="rounded=0;whiteSpace=wrap;html=1;fillColor=none;strokeColor=none;" vertex="1" parent="1">
          <mxGeometry x="245" y="140" width="40" height="40" as="geometry" />
        </mxCell>
        <mxCell id="S9akIxUvSgGWWp-rXEKx-24" value="" style="endArrow=classic;html=1;rounded=0;entryX=0;entryY=0;entryDx=0;entryDy=5;entryPerimeter=0;" edge="1" parent="1" source="S9akIxUvSgGWWp-rXEKx-6">
          <mxGeometry width="50" height="50" relative="1" as="geometry">
            <mxPoint x="96.66999999999996" y="268.67999999999995" as="sourcePoint" />
            <mxPoint x="310" y="270" as="targetPoint" />
          </mxGeometry>
        </mxCell>
        <mxCell id="S9akIxUvSgGWWp-rXEKx-25" value="学生データの入力()" style="rounded=0;whiteSpace=wrap;html=1;fillColor=none;strokeColor=none;" vertex="1" parent="1">
          <mxGeometry x="147" y="242" width="140" height="40" as="geometry" />
        </mxCell>
        <mxCell id="S9akIxUvSgGWWp-rXEKx-27" value="" style="endArrow=classic;html=1;rounded=0;entryX=0.1;entryY=0.667;entryDx=0;entryDy=0;entryPerimeter=0;" edge="1" parent="1">
          <mxGeometry width="50" height="50" relative="1" as="geometry">
            <mxPoint x="320" y="280.01" as="sourcePoint" />
            <mxPoint x="410" y="280.01" as="targetPoint" />
          </mxGeometry>
        </mxCell>
        <mxCell id="S9akIxUvSgGWWp-rXEKx-28" value="起動()" style="rounded=0;whiteSpace=wrap;html=1;fillColor=none;strokeColor=none;" vertex="1" parent="1">
          <mxGeometry x="343" y="250" width="40" height="40" as="geometry" />
        </mxCell>
        <mxCell id="S9akIxUvSgGWWp-rXEKx-30" value="" style="endArrow=classic;html=1;rounded=0;entryX=0;entryY=0;entryDx=0;entryDy=5;entryPerimeter=0;" edge="1" parent="1">
          <mxGeometry width="50" height="50" relative="1" as="geometry">
            <mxPoint x="420" y="291" as="sourcePoint" />
            <mxPoint x="535" y="291" as="targetPoint" />
          </mxGeometry>
        </mxCell>
        <mxCell id="S9akIxUvSgGWWp-rXEKx-31" value="学生データの登録" style="rounded=0;whiteSpace=wrap;html=1;fillColor=none;strokeColor=none;" vertex="1" parent="1">
          <mxGeometry x="426" y="262" width="100" height="40" as="geometry" />
        </mxCell>
        <mxCell id="S9akIxUvSgGWWp-rXEKx-33" value="学生オブジェクト" style="rounded=0;whiteSpace=wrap;html=1;fillColor=default;strokeColor=none;" vertex="1" parent="1">
          <mxGeometry x="492" y="119" width="100" height="40" as="geometry" />
        </mxCell>
        <mxCell id="S9akIxUvSgGWWp-rXEKx-35" value="" style="ellipse;whiteSpace=wrap;html=1;fillColor=none;strokeColor=#FF3153;" vertex="1" parent="1">
          <mxGeometry x="91" y="119.5" width="100" height="39" as="geometry" />
        </mxCell>
        <mxCell id="S9akIxUvSgGWWp-rXEKx-36" value="" style="endArrow=none;html=1;rounded=0;entryX=0;entryY=0.5;entryDx=0;entryDy=0;exitX=0.93;exitY=0.671;exitDx=0;exitDy=0;exitPerimeter=0;strokeColor=#FF3153;" edge="1" parent="1" source="S9akIxUvSgGWWp-rXEKx-35" target="S9akIxUvSgGWWp-rXEKx-37">
          <mxGeometry width="50" height="50" relative="1" as="geometry">
            <mxPoint x="180" y="430" as="sourcePoint" />
            <mxPoint x="330" y="473.75" as="targetPoint" />
          </mxGeometry>
        </mxCell>
        <mxCell id="S9akIxUvSgGWWp-rXEKx-37" value="メッセージ：&lt;div&gt;操作・メソッド・関数を示す&lt;/div&gt;&lt;div&gt;メッセージ名には&lt;font style=&quot;color: rgb(255, 49, 83);&quot;&gt;括弧()を付ける&lt;/font&gt;&lt;/div&gt;" style="rounded=0;whiteSpace=wrap;html=1;strokeColor=#FF3153;align=left;" vertex="1" parent="1">
          <mxGeometry x="620" y="94" width="180" height="60" as="geometry" />
        </mxCell>
        <mxCell id="S9akIxUvSgGWWp-rXEKx-39" value="" style="ellipse;whiteSpace=wrap;html=1;fillColor=none;strokeColor=#FF3153;" vertex="1" parent="1">
          <mxGeometry x="300" y="158.5" width="30" height="60" as="geometry" />
        </mxCell>
        <mxCell id="S9akIxUvSgGWWp-rXEKx-40" value="生存線(ライフライン)：&lt;div&gt;オブジェクトやクラスを示す&lt;/div&gt;" style="rounded=0;whiteSpace=wrap;html=1;strokeColor=#FF3153;align=left;" vertex="1" parent="1">
          <mxGeometry x="620" y="170" width="180" height="60" as="geometry" />
        </mxCell>
        <mxCell id="S9akIxUvSgGWWp-rXEKx-41" value="" style="endArrow=none;html=1;rounded=0;entryX=0;entryY=0.25;entryDx=0;entryDy=0;strokeColor=#FF3153;" edge="1" parent="1" source="S9akIxUvSgGWWp-rXEKx-12" target="S9akIxUvSgGWWp-rXEKx-40">
          <mxGeometry width="50" height="50" relative="1" as="geometry">
            <mxPoint x="480" y="290" as="sourcePoint" />
            <mxPoint x="530" y="240" as="targetPoint" />
          </mxGeometry>
        </mxCell>
        <mxCell id="S9akIxUvSgGWWp-rXEKx-42" value="活性区間：&lt;div&gt;オブジェクトがアクティブになってることを示す&lt;/div&gt;&lt;div&gt;その機能やメソッドが制御を持ってる時間を表現する&lt;/div&gt;" style="rounded=0;whiteSpace=wrap;html=1;strokeColor=#FF3153;align=left;" vertex="1" parent="1">
          <mxGeometry x="620" y="242" width="180" height="88" as="geometry" />
        </mxCell>
        <mxCell id="S9akIxUvSgGWWp-rXEKx-43" value="" style="endArrow=none;html=1;rounded=0;entryX=0;entryY=0.25;entryDx=0;entryDy=0;strokeColor=#FF3153;exitX=1.089;exitY=0.397;exitDx=0;exitDy=0;exitPerimeter=0;" edge="1" parent="1" source="S9akIxUvSgGWWp-rXEKx-39" target="S9akIxUvSgGWWp-rXEKx-42">
          <mxGeometry width="50" height="50" relative="1" as="geometry">
            <mxPoint x="470" y="220" as="sourcePoint" />
            <mxPoint x="550" y="220" as="targetPoint" />
          </mxGeometry>
        </mxCell>
        <mxCell id="S9akIxUvSgGWWp-rXEKx-44" value="" style="ellipse;whiteSpace=wrap;html=1;fillColor=none;strokeColor=#FF3153;" vertex="1" parent="1">
          <mxGeometry x="424" y="267" width="104" height="30" as="geometry" />
        </mxCell>
      </root>
    </mxGraphModel>
  </diagram>
</mxfile>
